<svg width="971" height="971" viewBox="0 0 971 971" fill="none" xmlns="http://www.w3.org/2000/svg">
<path d="M875.838 136.583H849.716C845.518 136.583 842.059 134.271 840.45 130.393C838.842 126.515 839.659 122.431 842.622 119.463L861.092 100.999C863.806 98.284 865.3 94.6697 865.3 90.8331C865.3 86.9914 863.806 83.3823 861.092 80.6626L837.55 57.1208C832.121 51.6917 822.653 51.6813 817.214 57.1208L798.75 75.585C795.782 78.5478 791.687 79.3751 787.819 77.7618C783.941 76.1538 781.63 72.6947 781.63 68.4961V42.3743C781.63 34.4477 775.182 28 767.255 28H733.957C726.03 28 719.583 34.4477 719.583 42.3743V68.4961C719.583 72.6947 717.271 76.1538 713.393 77.7618C709.526 79.3802 705.431 78.5478 702.463 75.585L683.999 57.1208C678.559 51.6813 669.092 51.6917 663.663 57.1208L640.121 80.6626C637.406 83.3771 635.912 86.9914 635.912 90.8331C635.912 94.6697 637.406 98.2788 640.121 100.999L658.59 119.463C661.553 122.431 662.365 126.515 660.762 130.393C659.159 134.271 655.695 136.583 651.496 136.583H625.374C617.448 136.583 611 143.03 611 150.957V184.25C611 192.182 617.448 198.63 625.374 198.63H651.496C655.695 198.63 659.154 200.941 660.762 204.819C662.37 208.697 661.553 212.782 658.59 215.75L640.121 234.214C637.406 236.928 635.912 240.543 635.912 244.379C635.912 248.221 637.406 251.83 640.121 254.55L663.663 278.092C669.097 283.526 678.559 283.536 683.999 278.092L702.463 259.622C705.431 256.659 709.51 255.842 713.393 257.45C717.271 259.059 719.583 262.518 719.583 266.716V292.838C719.583 300.765 726.03 307.212 733.957 307.212H767.25C775.177 307.212 781.625 300.765 781.625 292.838V266.716C781.625 262.518 783.936 259.059 787.814 257.45C791.697 255.837 795.777 256.659 798.744 259.622L817.209 278.092C822.648 283.531 832.115 283.521 837.545 278.092L861.086 254.55C863.801 251.835 865.295 248.221 865.295 244.379C865.295 240.543 863.801 236.934 861.086 234.214L842.617 215.75C839.654 212.782 838.842 208.697 840.445 204.819C842.048 200.941 845.518 198.63 849.716 198.63L875.838 198.63C883.765 198.63 890.212 192.182 890.212 184.255V150.957C890.212 143.03 883.765 136.583 875.838 136.583ZM879.871 184.255C879.871 186.479 878.061 188.289 875.838 188.289L849.716 188.289C841.319 188.289 834.106 193.108 830.895 200.863C827.679 208.619 829.37 217.13 835.311 223.066L853.78 241.53C855.357 243.107 855.357 245.667 853.78 247.239L830.239 270.78C828.667 272.352 826.107 272.363 824.53 270.78L806.066 252.311C800.125 246.37 791.619 244.689 783.863 247.895C776.108 251.106 771.289 258.319 771.289 266.716V292.838C771.289 295.061 769.479 296.871 767.255 296.871H733.957C731.733 296.871 729.924 295.061 729.924 292.838V266.716C729.924 258.319 725.105 251.106 717.349 247.895C714.748 246.815 712.07 246.287 709.422 246.287C704.179 246.287 699.097 248.355 695.146 252.306L676.682 270.775C675.1 272.357 672.54 272.347 670.974 270.775L647.432 247.233C645.855 245.656 645.855 243.097 647.432 241.525L665.901 223.061C671.837 217.125 673.533 208.614 670.317 200.858C667.106 193.108 659.893 188.289 651.496 188.289H625.374C623.151 188.289 621.341 186.479 621.341 184.255V150.957C621.341 148.733 623.151 146.924 625.374 146.924H651.496C659.893 146.924 667.106 142.105 670.317 134.349C673.533 126.593 671.842 118.082 665.901 112.146L647.432 93.6821C645.855 92.1051 645.855 89.5456 647.432 87.9738L670.974 64.432C672.546 62.855 675.105 62.855 676.682 64.432L695.146 82.8962C701.077 88.8269 709.583 90.5281 717.349 87.3119C725.105 84.1062 729.924 76.8932 729.924 68.4961V42.3743C729.924 40.1509 731.733 38.3412 733.957 38.3412H767.25C769.479 38.3412 771.289 40.1509 771.289 42.3743V68.4961C771.289 76.8932 776.108 84.1062 783.863 87.3171C791.63 90.5332 800.13 88.8373 806.066 82.9014L824.53 64.4372C826.112 62.8602 828.672 62.8602 830.239 64.4372L853.78 87.979C855.357 89.556 855.357 92.1154 853.78 93.6873L835.311 112.151C829.375 118.087 827.679 126.598 830.895 134.354C834.106 142.11 841.319 146.929 849.716 146.929H875.838C878.061 146.924 879.871 148.733 879.871 150.957V184.255Z" fill="#A4A9AD"/>
<path d="M732.485 124.691C708.694 134.546 697.273 161.711 707.024 185.253C716.775 208.794 744.059 219.927 767.851 210.072C791.643 200.217 803.064 173.052 793.313 149.511C783.562 125.969 756.277 114.837 732.485 124.691ZM763.922 200.585C745.422 208.248 724.193 199.586 716.611 181.281C709.029 162.977 717.915 141.841 736.415 134.178C754.914 126.516 776.143 135.177 783.725 153.482C791.307 171.787 782.421 192.923 763.922 200.585Z" fill="#A4A9AD"/>
<path d="M561.88 28H93.1807V788H688.531V154.651L561.88 28Z" fill="#E8E8E8"/>
<path d="M581.48 91.3266H93.1807V28H561.88L581.48 91.3266Z" fill="#FB3449"/>
<path d="M328.808 280.994C328.808 294.433 324.847 304.81 316.921 312.13C308.995 319.452 297.74 323.112 283.151 323.112H274.019V363.011H241.527V242.742H283.154C298.344 242.742 309.752 246.061 317.375 252.696C324.998 259.332 328.808 268.764 328.808 280.994ZM274.022 296.624H279.945C284.825 296.624 288.706 295.255 291.586 292.51C294.466 289.768 295.905 285.983 295.905 281.157C295.905 273.041 291.408 268.982 282.414 268.982H274.022V296.624Z" fill="#A4A9AD"/>
<path d="M450.067 300.326C450.067 320.397 444.539 335.863 433.49 346.722C422.44 357.581 406.904 363.011 386.888 363.011H347.977V242.742H389.603C408.907 242.742 423.809 247.678 434.312 257.549C444.813 267.421 450.067 281.681 450.067 300.326ZM416.339 301.479C416.339 290.455 414.158 282.285 409.799 276.964C405.44 271.644 398.817 268.985 389.931 268.985H380.473V336.357H387.713C397.587 336.357 404.823 333.492 409.431 327.759C414.035 322.032 416.339 313.271 416.339 301.479Z" fill="#A4A9AD"/>
<path d="M503.62 363.011H471.619V242.742H542.696V268.819H503.62V291.771H539.651V317.848H503.62V363.011Z" fill="#A4A9AD"/>
<path d="M561.88 154.651H688.531L561.88 28V154.651Z" fill="#D1D3D3"/>
<path d="M855.759 671.58C868.831 666.497 875.368 663.954 877.203 660.36C878.792 657.248 878.744 653.549 877.074 650.478C875.146 646.933 868.545 644.564 855.343 639.825L518.64 518.957C507.839 515.08 502.439 513.141 498.909 514.364C495.839 515.427 493.427 517.839 492.364 520.909C491.141 524.439 493.08 529.839 496.957 540.64L617.824 877.344C622.563 890.546 624.933 897.146 628.477 899.075C631.548 900.745 635.245 900.793 638.359 899.204C641.953 897.369 644.494 890.832 649.58 877.76L704.606 736.261C705.602 733.701 706.1 732.421 706.869 731.343C707.551 730.387 708.386 729.552 709.342 728.87C710.42 728.101 711.7 727.603 714.26 726.607L855.759 671.58Z" fill="#FB3449" stroke="#404040" stroke-width="23" stroke-linecap="round" stroke-linejoin="round"/>
<mask id="path-10-outside-1_63_31" maskUnits="userSpaceOnUse" x="100" y="816" width="463" height="99" fill="black">
<rect fill="white" x="100" y="816" width="463" height="99"/>
<path d="M101.091 818.909H125.364L151 881.455H152.091L177.727 818.909H202V912H182.909V851.409H182.136L158.045 911.545H145.045L120.955 851.182H120.182V912H101.091V818.909ZM303.761 865.455C303.761 875.606 301.837 884.242 297.989 891.364C294.17 898.485 288.958 903.924 282.352 907.682C275.777 911.409 268.383 913.273 260.17 913.273C251.898 913.273 244.473 911.394 237.898 907.636C231.322 903.879 226.125 898.439 222.307 891.318C218.489 884.197 216.58 875.576 216.58 865.455C216.58 855.303 218.489 846.667 222.307 839.545C226.125 832.424 231.322 827 237.898 823.273C244.473 819.515 251.898 817.636 260.17 817.636C268.383 817.636 275.777 819.515 282.352 823.273C288.958 827 294.17 832.424 297.989 839.545C301.837 846.667 303.761 855.303 303.761 865.455ZM283.807 865.455C283.807 858.879 282.822 853.333 280.852 848.818C278.913 844.303 276.17 840.879 272.625 838.545C269.08 836.212 264.928 835.045 260.17 835.045C255.413 835.045 251.261 836.212 247.716 838.545C244.17 840.879 241.413 844.303 239.443 848.818C237.504 853.333 236.534 858.879 236.534 865.455C236.534 872.03 237.504 877.576 239.443 882.091C241.413 886.606 244.17 890.03 247.716 892.364C251.261 894.697 255.413 895.864 260.17 895.864C264.928 895.864 269.08 894.697 272.625 892.364C276.17 890.03 278.913 886.606 280.852 882.091C282.822 877.576 283.807 872.03 283.807 865.455ZM329.909 818.909L352.409 889.636H353.273L375.818 818.909H397.636L365.545 912H340.182L308.045 818.909H329.909ZM408.841 912V818.909H471.568V835.136H428.523V857.318H468.341V873.545H428.523V895.773H471.75V912H408.841ZM487.216 912V818.909H523.943C530.973 818.909 536.973 820.167 541.943 822.682C546.943 825.167 550.746 828.697 553.352 833.273C555.989 837.818 557.307 843.167 557.307 849.318C557.307 855.5 555.973 860.818 553.307 865.273C550.64 869.697 546.777 873.091 541.716 875.455C536.686 877.818 530.595 879 523.443 879H498.852V863.182H520.261C524.019 863.182 527.14 862.667 529.625 861.636C532.11 860.606 533.958 859.061 535.17 857C536.413 854.939 537.034 852.379 537.034 849.318C537.034 846.227 536.413 843.621 535.17 841.5C533.958 839.379 532.095 837.773 529.58 836.682C527.095 835.561 523.958 835 520.17 835H506.898V912H487.216ZM537.489 869.636L560.625 912H538.898L516.261 869.636H537.489Z"/>
</mask>
<path d="M101.091 818.909H125.364L151 881.455H152.091L177.727 818.909H202V912H182.909V851.409H182.136L158.045 911.545H145.045L120.955 851.182H120.182V912H101.091V818.909ZM303.761 865.455C303.761 875.606 301.837 884.242 297.989 891.364C294.17 898.485 288.958 903.924 282.352 907.682C275.777 911.409 268.383 913.273 260.17 913.273C251.898 913.273 244.473 911.394 237.898 907.636C231.322 903.879 226.125 898.439 222.307 891.318C218.489 884.197 216.58 875.576 216.58 865.455C216.58 855.303 218.489 846.667 222.307 839.545C226.125 832.424 231.322 827 237.898 823.273C244.473 819.515 251.898 817.636 260.17 817.636C268.383 817.636 275.777 819.515 282.352 823.273C288.958 827 294.17 832.424 297.989 839.545C301.837 846.667 303.761 855.303 303.761 865.455ZM283.807 865.455C283.807 858.879 282.822 853.333 280.852 848.818C278.913 844.303 276.17 840.879 272.625 838.545C269.08 836.212 264.928 835.045 260.17 835.045C255.413 835.045 251.261 836.212 247.716 838.545C244.17 840.879 241.413 844.303 239.443 848.818C237.504 853.333 236.534 858.879 236.534 865.455C236.534 872.03 237.504 877.576 239.443 882.091C241.413 886.606 244.17 890.03 247.716 892.364C251.261 894.697 255.413 895.864 260.17 895.864C264.928 895.864 269.08 894.697 272.625 892.364C276.17 890.03 278.913 886.606 280.852 882.091C282.822 877.576 283.807 872.03 283.807 865.455ZM329.909 818.909L352.409 889.636H353.273L375.818 818.909H397.636L365.545 912H340.182L308.045 818.909H329.909ZM408.841 912V818.909H471.568V835.136H428.523V857.318H468.341V873.545H428.523V895.773H471.75V912H408.841ZM487.216 912V818.909H523.943C530.973 818.909 536.973 820.167 541.943 822.682C546.943 825.167 550.746 828.697 553.352 833.273C555.989 837.818 557.307 843.167 557.307 849.318C557.307 855.5 555.973 860.818 553.307 865.273C550.64 869.697 546.777 873.091 541.716 875.455C536.686 877.818 530.595 879 523.443 879H498.852V863.182H520.261C524.019 863.182 527.14 862.667 529.625 861.636C532.11 860.606 533.958 859.061 535.17 857C536.413 854.939 537.034 852.379 537.034 849.318C537.034 846.227 536.413 843.621 535.17 841.5C533.958 839.379 532.095 837.773 529.58 836.682C527.095 835.561 523.958 835 520.17 835H506.898V912H487.216ZM537.489 869.636L560.625 912H538.898L516.261 869.636H537.489Z" fill="#E8E8E8"/>
<path d="M101.091 818.909V817.909H100.091V818.909H101.091ZM125.364 818.909L126.289 818.53L126.034 817.909H125.364V818.909ZM151 881.455L150.075 881.834L150.329 882.455H151V881.455ZM152.091 881.455V882.455H152.762L153.016 881.834L152.091 881.455ZM177.727 818.909V817.909H177.056L176.802 818.53L177.727 818.909ZM202 818.909H203V817.909H202V818.909ZM202 912V913H203V912H202ZM182.909 912H181.909V913H182.909V912ZM182.909 851.409H183.909V850.409H182.909V851.409ZM182.136 851.409V850.409H181.46L181.208 851.037L182.136 851.409ZM158.045 911.545V912.545H158.722L158.974 911.917L158.045 911.545ZM145.045 911.545L144.117 911.916L144.368 912.545H145.045V911.545ZM120.955 851.182L121.883 850.811L121.632 850.182H120.955V851.182ZM120.182 851.182V850.182H119.182V851.182H120.182ZM120.182 912V913H121.182V912H120.182ZM101.091 912H100.091V913H101.091V912ZM101.091 819.909H125.364V817.909H101.091V819.909ZM124.438 819.288L150.075 881.834L151.925 881.075L126.289 818.53L124.438 819.288ZM151 882.455H152.091V880.455H151V882.455ZM153.016 881.834L178.653 819.288L176.802 818.53L151.166 881.075L153.016 881.834ZM177.727 819.909H202V817.909H177.727V819.909ZM201 818.909V912H203V818.909H201ZM202 911H182.909V913H202V911ZM183.909 912V851.409H181.909V912H183.909ZM182.909 850.409H182.136V852.409H182.909V850.409ZM181.208 851.037L157.117 911.174L158.974 911.917L183.065 851.781L181.208 851.037ZM158.045 910.545H145.045V912.545H158.045V910.545ZM145.974 911.175L121.883 850.811L120.026 851.552L144.117 911.916L145.974 911.175ZM120.955 850.182H120.182V852.182H120.955V850.182ZM119.182 851.182V912H121.182V851.182H119.182ZM120.182 911H101.091V913H120.182V911ZM102.091 912V818.909H100.091V912H102.091ZM297.989 891.364L297.109 890.888L297.107 890.891L297.989 891.364ZM282.352 907.682L282.845 908.552L282.847 908.551L282.352 907.682ZM237.898 907.636L238.394 906.768L237.898 907.636ZM222.307 891.318L221.426 891.791L221.426 891.791L222.307 891.318ZM222.307 839.545L223.188 840.018L223.188 840.018L222.307 839.545ZM237.898 823.273L238.391 824.143L238.394 824.141L237.898 823.273ZM282.352 823.273L281.856 824.141L281.861 824.144L282.352 823.273ZM297.989 839.545L297.107 840.018L297.109 840.021L297.989 839.545ZM280.852 848.818L279.933 849.213L279.936 849.218L280.852 848.818ZM272.625 838.545L272.075 839.381L272.075 839.381L272.625 838.545ZM247.716 838.545L248.266 839.381L248.266 839.381L247.716 838.545ZM239.443 848.818L238.527 848.418L238.524 848.424L239.443 848.818ZM239.443 882.091L238.524 882.486L238.527 882.491L239.443 882.091ZM247.716 892.364L248.266 891.528L248.266 891.528L247.716 892.364ZM272.625 892.364L272.075 891.528L272.075 891.528L272.625 892.364ZM280.852 882.091L279.936 881.691L279.933 881.696L280.852 882.091ZM302.761 865.455C302.761 875.481 300.861 883.946 297.109 890.888L298.868 891.839C302.813 884.539 304.761 875.731 304.761 865.455H302.761ZM297.107 890.891C293.372 897.857 288.29 903.154 281.858 906.813L282.847 908.551C289.627 904.694 294.969 899.112 298.87 891.836L297.107 890.891ZM281.859 906.812C275.447 910.447 268.225 912.273 260.17 912.273V914.273C268.54 914.273 276.106 912.372 282.845 908.552L281.859 906.812ZM260.17 912.273C252.055 912.273 244.805 910.432 238.394 906.768L237.402 908.505C244.142 912.356 251.74 914.273 260.17 914.273V912.273ZM238.394 906.768C231.992 903.11 226.924 897.813 223.188 890.846L221.426 891.791C225.326 899.066 230.652 904.648 237.402 908.505L238.394 906.768ZM223.188 890.846C219.465 883.902 217.58 875.452 217.58 865.455H215.58C215.58 875.7 217.512 884.492 221.426 891.791L223.188 890.846ZM217.58 865.455C217.58 855.426 219.465 846.961 223.188 840.018L221.426 839.073C217.512 846.372 215.58 855.18 215.58 865.455H217.58ZM223.188 840.018C226.923 833.051 231.991 827.77 238.391 824.143L237.405 822.403C230.653 826.23 225.327 831.797 221.426 839.073L223.188 840.018ZM238.394 824.141C244.805 820.478 252.055 818.636 260.17 818.636V816.636C251.74 816.636 244.142 818.553 237.402 822.404L238.394 824.141ZM260.17 818.636C268.224 818.636 275.444 820.477 281.856 824.141L282.848 822.404C276.109 818.553 268.541 816.636 260.17 816.636V818.636ZM281.861 824.144C288.291 827.772 293.373 833.052 297.107 840.018L298.87 839.073C294.968 831.796 289.626 826.228 282.844 822.402L281.861 824.144ZM297.109 840.021C300.861 846.964 302.761 855.428 302.761 865.455H304.761C304.761 855.178 302.813 846.37 298.868 839.07L297.109 840.021ZM284.807 865.455C284.807 858.785 283.809 853.094 281.769 848.418L279.936 849.218C281.835 853.572 282.807 858.973 282.807 865.455H284.807ZM281.771 848.424C279.767 843.758 276.908 840.167 273.175 837.71L272.075 839.381C275.433 841.59 278.059 844.848 279.933 849.213L281.771 848.424ZM273.175 837.71C269.447 835.257 265.099 834.045 260.17 834.045V836.045C264.757 836.045 268.712 837.168 272.075 839.381L273.175 837.71ZM260.17 834.045C255.242 834.045 250.894 835.257 247.166 837.71L248.266 839.381C251.629 837.168 255.584 836.045 260.17 836.045V834.045ZM247.166 837.71C243.434 840.166 240.561 843.755 238.527 848.418L240.36 849.218C242.265 844.851 244.907 841.591 248.266 839.381L247.166 837.71ZM238.524 848.424C236.517 853.098 235.534 858.786 235.534 865.455H237.534C237.534 858.971 238.491 853.569 240.362 849.213L238.524 848.424ZM235.534 865.455C235.534 872.123 236.517 877.811 238.524 882.486L240.362 881.696C238.491 877.34 237.534 871.938 237.534 865.455H235.534ZM238.527 882.491C240.561 887.154 243.434 890.743 247.166 893.199L248.266 891.528C244.907 889.318 242.265 886.058 240.36 881.691L238.527 882.491ZM247.166 893.199C250.894 895.652 255.242 896.864 260.17 896.864V894.864C255.584 894.864 251.629 893.742 248.266 891.528L247.166 893.199ZM260.17 896.864C265.099 896.864 269.447 895.652 273.175 893.199L272.075 891.528C268.712 893.742 264.757 894.864 260.17 894.864V896.864ZM273.175 893.199C276.908 890.742 279.767 887.151 281.771 882.486L279.933 881.696C278.059 886.061 275.433 889.319 272.075 891.528L273.175 893.199ZM281.769 882.491C283.809 877.815 284.807 872.124 284.807 865.455H282.807C282.807 871.936 281.835 877.337 279.936 881.691L281.769 882.491ZM329.909 818.909L330.862 818.606L330.64 817.909H329.909V818.909ZM352.409 889.636L351.456 889.94L351.678 890.636H352.409V889.636ZM353.273 889.636V890.636H354.004L354.225 889.94L353.273 889.636ZM375.818 818.909V817.909H375.087L374.865 818.605L375.818 818.909ZM397.636 818.909L398.582 819.235L399.039 817.909H397.636V818.909ZM365.545 912V913H366.258L366.491 912.326L365.545 912ZM340.182 912L339.237 912.326L339.469 913H340.182V912ZM308.045 818.909V817.909H306.642L307.1 819.235L308.045 818.909ZM328.956 819.212L351.456 889.94L353.362 889.333L330.862 818.606L328.956 819.212ZM352.409 890.636H353.273V888.636H352.409V890.636ZM354.225 889.94L376.771 819.213L374.865 818.605L352.32 889.333L354.225 889.94ZM375.818 819.909H397.636V817.909H375.818V819.909ZM396.691 818.583L364.6 911.674L366.491 912.326L398.582 819.235L396.691 818.583ZM365.545 911H340.182V913H365.545V911ZM341.127 911.674L308.991 818.583L307.1 819.235L339.237 912.326L341.127 911.674ZM308.045 819.909H329.909V817.909H308.045V819.909ZM408.841 912H407.841V913H408.841V912ZM408.841 818.909V817.909H407.841V818.909H408.841ZM471.568 818.909H472.568V817.909H471.568V818.909ZM471.568 835.136V836.136H472.568V835.136H471.568ZM428.523 835.136V834.136H427.523V835.136H428.523ZM428.523 857.318H427.523V858.318H428.523V857.318ZM468.341 857.318H469.341V856.318H468.341V857.318ZM468.341 873.545V874.545H469.341V873.545H468.341ZM428.523 873.545V872.545H427.523V873.545H428.523ZM428.523 895.773H427.523V896.773H428.523V895.773ZM471.75 895.773H472.75V894.773H471.75V895.773ZM471.75 912V913H472.75V912H471.75ZM409.841 912V818.909H407.841V912H409.841ZM408.841 819.909H471.568V817.909H408.841V819.909ZM470.568 818.909V835.136H472.568V818.909H470.568ZM471.568 834.136H428.523V836.136H471.568V834.136ZM427.523 835.136V857.318H429.523V835.136H427.523ZM428.523 858.318H468.341V856.318H428.523V858.318ZM467.341 857.318V873.545H469.341V857.318H467.341ZM468.341 872.545H428.523V874.545H468.341V872.545ZM427.523 873.545V895.773H429.523V873.545H427.523ZM428.523 896.773H471.75V894.773H428.523V896.773ZM470.75 895.773V912H472.75V895.773H470.75ZM471.75 911H408.841V913H471.75V911ZM487.216 912H486.216V913H487.216V912ZM487.216 818.909V817.909H486.216V818.909H487.216ZM541.943 822.682L541.492 823.574L541.498 823.577L541.943 822.682ZM553.352 833.273L552.483 833.768L552.487 833.774L553.352 833.273ZM553.307 865.273L554.163 865.789L554.165 865.786L553.307 865.273ZM541.716 875.455L541.293 874.548L541.291 874.549L541.716 875.455ZM498.852 879H497.852V880H498.852V879ZM498.852 863.182V862.182H497.852V863.182H498.852ZM529.625 861.636L530.008 862.56L530.008 862.56L529.625 861.636ZM535.17 857L534.314 856.484L534.309 856.493L535.17 857ZM535.17 841.5L534.302 841.996L534.308 842.005L535.17 841.5ZM529.58 836.682L529.168 837.593L529.175 837.596L529.182 837.599L529.58 836.682ZM506.898 835V834H505.898V835H506.898ZM506.898 912V913H507.898V912H506.898ZM537.489 869.636L538.366 869.157L538.082 868.636H537.489V869.636ZM560.625 912V913H562.311L561.503 911.521L560.625 912ZM538.898 912L538.016 912.471L538.298 913H538.898V912ZM516.261 869.636V868.636H514.593L515.379 870.108L516.261 869.636ZM488.216 912V818.909H486.216V912H488.216ZM487.216 819.909H523.943V817.909H487.216V819.909ZM523.943 819.909C530.857 819.909 536.694 821.146 541.492 823.574L542.395 821.79C537.253 819.187 531.09 817.909 523.943 817.909V819.909ZM541.498 823.577C546.331 825.979 549.982 829.375 552.483 833.768L554.221 832.778C551.511 828.019 547.555 824.354 542.388 821.786L541.498 823.577ZM552.487 833.774C555.021 838.143 556.307 843.313 556.307 849.318H558.307C558.307 843.021 556.956 837.493 554.217 832.771L552.487 833.774ZM556.307 849.318C556.307 855.354 555.006 860.487 552.449 864.759L554.165 865.786C556.941 861.149 558.307 855.646 558.307 849.318H556.307ZM552.45 864.757C549.895 868.997 546.189 872.262 541.293 874.548L542.139 876.361C547.364 873.92 551.386 870.397 554.163 865.789L552.45 864.757ZM541.291 874.549C536.426 876.835 530.488 878 523.443 878V880C530.701 880 536.945 878.801 542.141 876.36L541.291 874.549ZM523.443 878H498.852V880H523.443V878ZM499.852 879V863.182H497.852V879H499.852ZM498.852 864.182H520.261V862.182H498.852V864.182ZM520.261 864.182C524.102 864.182 527.364 863.656 530.008 862.56L529.242 860.713C526.917 861.677 523.936 862.182 520.261 862.182V864.182ZM530.008 862.56C532.667 861.458 534.696 859.778 536.032 857.507L534.309 856.493C533.22 858.343 531.553 859.755 529.242 860.713L530.008 862.56ZM536.027 857.516C537.386 855.263 538.034 852.512 538.034 849.318H536.034C536.034 852.246 535.44 854.616 534.314 856.484L536.027 857.516ZM538.034 849.318C538.034 846.095 537.386 843.304 536.033 840.995L534.308 842.005C535.44 843.939 536.034 846.36 536.034 849.318H538.034ZM536.039 841.004C534.706 838.672 532.665 836.93 529.977 835.764L529.182 837.599C531.524 838.615 533.21 840.085 534.302 841.996L536.039 841.004ZM529.991 835.77C527.337 834.573 524.048 834 520.17 834V836C523.868 836 526.853 836.548 529.168 837.593L529.991 835.77ZM520.17 834H506.898V836H520.17V834ZM505.898 835V912H507.898V835H505.898ZM506.898 911H487.216V913H506.898V911ZM536.611 870.116L559.747 912.479L561.503 911.521L538.366 869.157L536.611 870.116ZM560.625 911H538.898V913H560.625V911ZM539.78 911.529L517.143 869.165L515.379 870.108L538.016 912.471L539.78 911.529ZM516.261 870.636H537.489V868.636H516.261V870.636Z" fill="#404040" mask="url(#path-10-outside-1_63_31)"/>
</svg>
